<?xml version="1.0" encoding="UTF-8"?>
<svg width="24px" height="24px" viewBox="0 0 24 24" version="1.1" xmlns="http://www.w3.org/2000/svg">
    <g stroke="none" stroke-width="1" fill="none" fill-rule="evenodd">
        <!-- House -->
        <path d="M12,2.5L3,9.5V21.5H21V9.5L12,2.5Z" stroke="#2563eb" stroke-width="1.5" fill="#ffffff"/>
        <!-- Roof -->
        <path d="M12,2.5L3,9.5H21L12,2.5Z" fill="#2563eb"/>
        <!-- Dollar Sign -->
        <path d="M13.5,11C13.5,10.1716 12.8284,9.5 12,9.5C11.1716,9.5 10.5,10.1716 10.5,11C10.5,11.8284 11.1716,12.5 12,12.5C12.8284,12.5 13.5,13.1716 13.5,14C13.5,14.8284 12.8284,15.5 12,15.5C11.1716,15.5 10.5,14.8284 10.5,14M12,8.5V9.5M12,15.5V16.5" stroke="#2563eb" stroke-width="1.5" stroke-linecap="round"/>
        <path d="M12,8.5V16.5M10.5,11H13.5M10.5,14H13.5" stroke="#2563eb" stroke-width="1.5" stroke-linecap="round"/>
    </g>
</svg>
